<?xml version="1.0" encoding="UTF-8" standalone="no"?>
<!-- Uploaded to: SVG Repo, www.svgrepo.com, Generator: SVG Repo Mixer Tools -->

<svg
   width="615.86829"
   height="576.63861"
   fill="#000"
   viewBox="0 0 739.04194 691.96633"
   version="1.1"
   xml:space="preserve"
   id="svg107"
   xmlns="http://www.w3.org/2000/svg"
   xmlns:svg="http://www.w3.org/2000/svg"><defs
   id="defs107" />

<style
   type="text/css"
   id="style1">
	.st0{display:none;}
	.st1{display:inline;opacity:0.93;}
	.st2{display:inline;fill:none;stroke:#000000;stroke-width:15;stroke-linecap:round;stroke-linejoin:round;stroke-miterlimit:10;}
	.st3{display:inline;}
	.st4{fill:none;stroke:#000000;stroke-width:15;stroke-linecap:round;stroke-linejoin:round;stroke-miterlimit:10;}
	.st5{display:inline;fill:none;stroke:#1A1D3F;stroke-width:15;stroke-linecap:round;stroke-linejoin:round;stroke-miterlimit:10;}
	.st6{fill:#DDEDE7;}
	.st7{fill:#1A1D3F;}
	.st8{fill:#E9B44D;}
	.st9{fill:#ED644E;}
	.st10{fill:#494EDF;}
	.st11{fill:#3DC5A1;}
	.st12{fill:#F6CEC1;}
	.st13{fill:none;} 
	.st14{fill:none;stroke:#1A1D3F;stroke-width:15;stroke-linecap:round;stroke-linejoin:round;stroke-miterlimit:10;}
	.st15{display:inline;fill:#E9B44D;}
	.st16{fill:#222222;}
	.st17{display:inline;fill:#222222;}
</style>





<g
   class="st0"
   id="stroke"
   transform="translate(-8.3650866,-21.23366)">

<path
   class="st2"
   d="m 293.9,473.8 c -17.9,36.4 -43.7,130 -36.5,195.4"
   id="path1" />

<path
   class="st2"
   d="m 382.8,275.9 c 11.6,4.8 14.2,23 4.6,30.9 -9.7,7.9 -27,1.7 -29.4,-10.5 -2.4,-12.2 11.2,-24.6 23.1,-21"
   id="path2" />

<path
   class="st2"
   d="m 325.2,668.6 c -35.8,-1 -60.2,1.6 -96.5,0.4 0,-29.2 -16.5,-40.3 -35.4,-42.2 -18.9,-1.9 -36.7,11.5 -45.5,28.3 -8.8,16.8 -9.3,37.4 -9.8,56.4 -0.5,18.3 4.5,62.5 12.1,79.1 20.5,44.4 68.6,22.6 93.1,22.2 107.5,-2 407.5,-16.4 570.1,-9.1 69.3,3.1 57.4,-35.6 10.9,-54.1 -30,-11.9 -88.7,-42.2 -109.6,-65.9 -28,-31.7 -119,-217.4 -126.3,-271.3 -7.2,-53.9 -14.2,-115.9 -52.5,-154.5 -42.4,-42.6 -76.9,-54.7 -136.9,-57.8 -56.3,-2.9 -115.3,6.1 -161.9,37.8 -46.6,31.7 -78.2,89.4 -67.7,144.8 10.5,55.4 74.1,86.4 124.8,91"
   id="path3" />

<path
   class="st2"
   d="m 396.8,487.3 c -7.7,12.7 -20.9,21.1 -32.9,30.1 -12,9 -23.8,20.2 -26.4,34.8 -3.4,19 11.2,38.3 29.9,44.2 18.7,5.9 39.8,0.4 56,-10.5 16.2,-11 28.3,-26.8 38.9,-43.1"
   id="path4" />

<path
   class="st2"
   d="m 256.7,226.1 c 0,0 0,0 0,0 2.6,-18.2 6.7,-36.2 12,-53.8 4.1,-13.4 11.4,-28.6 25.2,-30.6 7.6,-1.1 15.3,2.5 20.9,7.7 5.7,5.2 9.6,11.9 13.5,18.6 6.5,11 12.9,22.1 19.4,33.1"
   id="path5" />

<path
   class="st2"
   d="m 429.1,202.8 c 9.8,-16.7 23.5,-31.3 39.8,-41.9 7.4,-4.8 16.6,-8.9 24.7,-5.4 9,4 11.8,15.3 12.9,25.1 2,17.4 2.3,35.1 1,52.6"
   id="path6" />

<path
   class="st2"
   d="m 552.5,279.1 c 16.2,-5.5 33,-8.9 50,-10.3 11.3,-0.9 24.5,0 31,9.2 7.2,10.2 1.9,24.3 -4.6,35 -12.3,20.3 -28.5,38.2 -47.4,52.6"
   id="path7" />

<path
   class="st2"
   d="m 590,422 c 13.9,-0.9 27.8,-1.7 41.7,-2.6 8.3,-0.5 16.8,-1 24.8,1.4 8,2.4 15.4,8.4 17.1,16.6 2.1,10.4 -5.3,20.1 -12.2,28.2 -12.9,15 -25.8,30 -38.7,45"
   id="path8" />

<path
   class="st2"
   d="m 654.3,578.6 c 12.3,-3.5 24.8,-6 37.5,-7.3 12,-1.2 26.4,-0.2 32.4,10.2 6.1,10.6 -0.7,23.7 -7.4,34 -7.9,12.1 -15.7,24.2 -23.6,36.3"
   id="path9" />

<path
   class="st2"
   d="m 742.6,706.7 c 5.6,-3.4 11.1,-6.9 16.7,-10.3 9.2,-5.7 20,-11.5 30.1,-8.1 10.7,3.6 15.6,15.9 17.2,27.1 1.3,8.8 1.2,17.8 0,26.7"
   id="path10" />

</g>

<g
   id="outline"
   transform="translate(-130.76509,-134.03366)">

<path
   d="m 367.5,316.2 c 3.2,1.1 6.4,1.7 9.5,1.7 5.6,0 10.9,-1.8 15.2,-5.3 6.6,-5.4 9.7,-14.2 8.3,-23.5 -1.4,-9.3 -6.9,-16.8 -14.8,-20.1 -0.4,-0.2 -2,-0.7 -2.4,-0.9 -8.2,-2.5 -17.2,-0.2 -24.2,6.1 -7,6.3 -10.2,15.1 -8.5,23.5 1.7,8.4 8,15.3 16.9,18.5 z m 1.7,-30.8 c 1.9,-1.7 4.7,-3.2 7.5,-3.2 1.6,0 2.8,0.5 3.2,0.7 3.7,1.8 5.2,5.3 5.7,8.4 0.5,3.1 -0.1,7.3 -3,9.7 -2.9,2.4 -7.2,2.1 -10.1,1 -3,-1.1 -6.4,-3.5 -7.2,-7.2 -0.7,-3.7 1.6,-7.3 3.9,-9.4 z m 457.7,457.2 c -3.8,-1.5 -7.9,-3.2 -12.1,-5.1 0.7,-7.8 0.5,-15.6 -0.6,-23.2 -2.5,-17.1 -10.6,-29.1 -22.2,-33.1 -14.4,-4.9 -28.8,4 -36.5,8.8 -4,2.5 -8.1,5 -12.1,7.5 l -0.5,0.3 c -9.5,-6.6 -17.5,-13.1 -22.7,-19.1 -4.4,-5 -10.7,-14.3 -18,-26.6 l 21.1,-32.4 c 7.8,-12 15.7,-27.7 7.6,-41.8 -4.4,-7.8 -14.9,-16.5 -39.7,-14 -11,1.1 -22,3.1 -32.8,5.9 -9.3,-19 -18.5,-38.7 -26.9,-57.8 11.5,-13.3 22.9,-26.6 34.4,-39.9 l 1.3,-1.6 c 5.9,-6.9 16.9,-19.6 13.9,-34.6 -2.1,-10.2 -10.6,-18.7 -22.2,-22.3 -9.4,-2.9 -19,-2.3 -27.5,-1.7 -11.7,0.7 -23.5,1.4 -35.2,2.2 -0.2,-0.9 -0.3,-1.9 -0.4,-2.7 l -0.8,-6.1 c -1.6,-11.9 -3.2,-24.2 -5.2,-36.4 18.3,-14.5 33.6,-32 45.7,-51.9 10.5,-17.3 12,-32.2 4.3,-43.2 -6.9,-9.8 -19.3,-13.9 -37.7,-12.4 -15.7,1.3 -31.3,4.3 -46.3,8.9 -4.3,-6.3 -9.1,-12.2 -14.6,-17.7 -8.8,-8.9 -17.3,-16.4 -25.7,-22.9 1,-16.7 0.6,-33.4 -1.3,-49.9 -0.7,-6.1 -2.8,-24.7 -17.4,-31.1 -9,-3.9 -19.7,-1.9 -31.8,6 -15.7,10.2 -29.3,24 -39.5,40.1 -8,-0.9 -16.7,-1.6 -26.2,-2.1 -16.3,-0.8 -32.1,-0.6 -47.2,0.5 l -4.4,-7.5 c -4.2,-7.2 -8.4,-14.3 -12.6,-21.5 -3.9,-6.7 -8.4,-14.3 -14.9,-20.3 -8,-7.4 -17.9,-10.9 -27.1,-9.6 -14.2,2 -24.7,14.1 -31.3,35.8 -5.1,16.7 -9,33.9 -11.7,51.2 -6,3.2 -11.7,6.7 -17.2,10.4 -24.4,16.6 -45,40.2 -57.8,66.4 -13.8,28.3 -18.3,58 -13,86 10.2,53.5 66.9,87.6 121.1,95.8 -18,42.1 -37.7,121.9 -33.6,181.8 -4.3,0 -8.8,0 -13.5,-0.1 -2.4,-24.6 -17.3,-39.9 -41.8,-42.3 -17,-1.7 -39.9,7.7 -52.8,32.3 -9.5,18 -10.1,39.7 -10.7,58.8 v 0.9 c -0.5,18.1 4.4,64.3 12.8,82.5 12,26 32.4,32.2 52.2,32.2 10.6,0 21.1,-1.8 30,-3.3 6.7,-1.2 13,-2.3 17.8,-2.3 28.2,-0.5 69.9,-1.9 118.3,-3.5 140,-4.6 331.7,-11 451.3,-5.6 19.1,0.9 51.7,-0.9 56.2,-22 3.3,-16.5 -13.7,-35.2 -42.5,-46.7 z m -63.7,-39.8 c 7.8,-4.8 16.7,-9.8 23.8,-7.4 2.3,0.8 9.8,4.6 12.2,21 0.7,4.7 0.9,9.4 0.8,14.2 -14.3,-7 -29.7,-15.3 -43.4,-23.8 2.2,-1.3 4.4,-2.7 6.6,-4 z m -70.5,-124 c 7.6,-0.8 20.9,-1 25.1,6.5 2,3.5 3.4,9.9 -7.2,26.2 l -16.9,26 c -8.8,-15.6 -18.6,-34.2 -28.6,-54 9.1,-2.2 18.3,-3.8 27.6,-4.7 z M 632.2,426.9 c 7.6,-0.5 15.4,-1 22.2,1.1 5.1,1.6 10.8,5.5 11.9,10.9 1.4,7.1 -4.7,15 -10.5,21.8 l -1.3,1.6 c -9.9,11.5 -19.7,22.9 -29.6,34.4 -11.1,-26 -20.1,-49.9 -25.2,-67.8 10.7,-0.7 21.6,-1.3 32.5,-2 z M 603.1,276.3 c 12.5,-1 20.7,1 24.2,6.1 5.3,7.6 -0.8,20 -4.9,26.8 -9.6,15.8 -21.9,30.4 -36,42.7 -4.8,-24 -11.5,-47.6 -22.8,-68.3 13,-3.8 26.2,-6.2 39.5,-7.3 z M 473,167.3 c 5.2,-3.4 12.5,-7 17.6,-4.8 4.5,2 7.3,8.2 8.5,19.1 1.4,12.6 2,25.3 1.6,38 -7.8,-4.9 -15.8,-8.9 -24.1,-12.3 -10.7,-4.4 -22,-7.6 -34.9,-10 8.6,-11.9 19.2,-22.2 31.3,-30 z m -197.1,7.2 c 4.8,-15.7 11.2,-24.2 19.1,-25.4 4.6,-0.7 10.2,1.5 14.8,5.8 4.9,4.5 8.6,10.8 12.1,16.8 4.2,7.2 8.4,14.3 12.6,21.5 l 1,1.7 c -25.1,3.3 -48.3,9.4 -69.1,18.4 2.4,-13.1 5.6,-26.1 9.5,-38.8 z M 854.5,786 c -0.9,4.4 -10.6,11.5 -40.9,10.1 -120.3,-5.4 -312.3,1 -452.5,5.6 -48.3,1.6 -89.9,3 -118,3.5 -5.9,0.1 -12.8,1.3 -20.1,2.6 -29.7,5.1 -53.4,6.9 -66,-20.4 -6.8,-14.8 -12,-57.7 -11.4,-75.8 v -0.9 c 0.5,-18.3 1.1,-37.2 8.9,-52.2 6.8,-12.9 21.6,-26 38.1,-24.3 19,1.9 28.6,13.5 28.6,34.7 0,4 3.2,7.4 7.3,7.5 18.7,0.6 34.4,0.2 49.6,-0.2 14.5,-0.4 29.5,-0.7 46.9,-0.2 0.1,0 0.1,0 0.2,0 4,0 7.4,-3.2 7.5,-7.3 0.1,-4.1 -3.1,-7.6 -7.3,-7.7 -17.8,-0.5 -33,-0.1 -47.7,0.2 -4.4,0.1 -8.9,0.2 -13.4,0.3 -4.6,-64.2 20.3,-151.9 36.4,-184.5 3.5,-6.2 2,-10.1 -6.1,-10.8 -25.9,-2.4 -52.9,-11.6 -74.1,-25.3 -17,-11 -38.5,-30.3 -44,-59.7 -4.7,-24.8 -0.7,-51.3 11.7,-76.6 11.7,-23.9 30.5,-45.5 52.8,-60.6 40,-27.1 94.4,-39.7 157.3,-36.5 11,0.6 20.7,1.4 29.6,2.6 0.1,0 0.2,0 0.3,0 16.6,2.3 30.2,5.8 42.7,10.9 11,4.5 21.4,10.3 31.9,18 0.1,0 0.1,0.1 0.2,0.1 8.9,6.5 17.9,14.4 27.3,23.9 35.1,35.3 42.8,93.1 49.6,144 l 0.8,6.1 c 0.4,3.1 1.1,6.5 2,10.3 0,0.1 0,0.2 0.1,0.3 12.4,52.8 68,169.9 103.6,230.8 0.2,0.6 0.6,1.1 1,1.7 8.7,14.9 16.2,26.2 21.5,32.1 6.8,7.7 17.2,16 29.3,24.1 0.2,0.1 0.4,0.3 0.6,0.4 26.3,17.6 60.4,34.6 82.6,43.4 24.7,10.2 34.4,23.8 33.1,29.8 z M 468.7,546.9 c -10.1,15.5 -22.8,32.9 -41,45.2 -13.8,9.3 -29.4,14.2 -44.1,14.2 -6.4,0 -12.6,-0.9 -18.4,-2.8 -23.3,-7.4 -39,-31 -35.1,-52.7 3.2,-17.8 17.3,-30.5 29.3,-39.5 1.9,-1.4 3.8,-2.9 5.8,-4.3 10,-7.4 19.5,-14.3 25.2,-23.7 2.2,-3.5 6.8,-4.7 10.3,-2.5 3.5,2.2 4.7,6.8 2.5,10.3 -7.3,12 -18.4,20.2 -29.2,28.1 -1.9,1.4 -3.8,2.8 -5.6,4.2 -9.7,7.4 -21.2,17.4 -23.5,30.2 -2.6,14.3 8.8,30.7 24.8,35.7 15.1,4.8 33.6,1.2 49.6,-9.6 16,-10.8 27.6,-26.8 36.8,-41 2.3,-3.5 6.9,-4.5 10.4,-2.2 3.5,2.3 4.4,7 2.2,10.4 z"
   id="path11" />

</g>

<g
   class="st0"
   id="flat"
   transform="translate(-8.3650866,-21.23366)">

<g
   class="st3"
   id="g93">

<g
   id="g60">

<g
   id="g19">

<g
   id="g18">

<g
   id="g17">

<g
   id="g16">

<g
   id="g15">

<g
   id="g14">

<g
   id="g13">

<g
   id="g12">

<path
   class="st8"
   d="m 316.3,148.2 c -5.6,-5.2 -13.3,-8.8 -20.9,-7.8 -13.9,1.9 -21.2,17.1 -25.4,30.5 -5.5,17.6 -9.6,36.4 -12.3,54.6 0,0.7 91.8,-24.7 91.8,-24.7 -6.4,-11.1 -13.4,-22.9 -19.8,-34 -3.8,-6.6 -7.7,-13.3 -13.4,-18.6 z"
   id="path12" />

</g>

</g>

</g>

</g>

</g>

</g>

</g>

</g>

<g
   id="g27">

<g
   id="g26">

<g
   id="g25">

<g
   id="g24">

<g
   id="g23">

<g
   id="g22">

<g
   id="g21">

<g
   id="g20">

<path
   class="st8"
   d="m 495,155.4 c -8,-3.5 -17.3,0.5 -24.7,5.3 -16.3,10.5 -30.7,25.5 -40.6,42.2 l 78.9,30.2 c 1.4,-17.5 1.2,-35.1 -0.7,-52.6 -1.1,-9.8 -3.8,-21.1 -12.9,-25.1 z"
   id="path19" />

</g>

</g>

</g>

</g>

</g>

</g>

</g>

</g>

<g
   id="g35">

<g
   id="g34">

<g
   id="g33">

<g
   id="g32">

<g
   id="g31">

<g
   id="g30">

<g
   id="g29">

<g
   id="g28">

<path
   class="st8"
   d="m 629.6,313.5 c 6.5,-10.6 11.9,-24.7 4.8,-35 -6.5,-9.3 -19.7,-10.2 -30.9,-9.4 -17,1.3 -34.7,4.7 -50.9,10.1 l 29,87.1 c 19,-14.2 35.5,-32.6 48,-52.8 z"
   id="path27" />

</g>

</g>

</g>

</g>

</g>

</g>

</g>

</g>

<g
   id="g43">

<g
   id="g42">

<g
   id="g41">

<g
   id="g40">

<g
   id="g39">

<g
   id="g38">

<g
   id="g37">

<g
   id="g36">

<path
   class="st8"
   d="m 673.6,438.2 c -1.6,-8.2 -9,-14.2 -17,-16.7 -8,-2.5 -16.5,-2 -24.8,-1.6 -13.9,0.8 -27.8,1.6 -41.7,2.4 -2.4,34.3 11.3,62.9 32.2,88.8 13,-14.9 26,-29.8 38.9,-44.8 7,-8 14.5,-17.7 12.4,-28.1 z"
   id="path35" />

</g>

</g>

</g>

</g>

</g>

</g>

</g>

</g>

<g
   id="g51">

<g
   id="g50">

<g
   id="g49">

<g
   id="g48">

<g
   id="g47">

<g
   id="g46">

<g
   id="g45">

<g
   id="g44">

<path
   class="st8"
   d="m 691.2,572.1 c -12.7,1.2 -25.3,3.6 -37.6,7.1 l 38.6,73.5 c 7.9,-12.1 15.8,-24.1 23.8,-36.2 6.7,-10.2 13.6,-23.3 7.6,-34 -5.9,-10.4 -20.4,-11.5 -32.4,-10.4 z"
   id="path43" />

</g>

</g>

</g>

</g>

</g>

</g>

</g>

</g>

<g
   id="g59">

<g
   id="g58">

<g
   id="g57">

<g
   id="g56">

<g
   id="g55">

<g
   id="g54">

<g
   id="g53">

<g
   id="g52">

<path
   class="st8"
   d="m 805.3,716.8 c -1.6,-11.2 -6.4,-23.5 -17.1,-27.2 -10.2,-3.5 -21,2.3 -30.2,7.9 -5.6,3.4 -11.2,6.8 -16.7,10.2 l 63.9,35.7 c 1.2,-8.8 1.3,-17.8 0.1,-26.6 z"
   id="path51" />

</g>

</g>

</g>

</g>

</g>

</g>

</g>

</g>

</g>

<g
   id="g68">

<g
   id="g67">

<g
   id="g66">

<g
   id="g65">

<g
   id="g64">

<g
   id="g63">

<g
   id="g62">

<g
   id="g61">

<path
   class="st11"
   d="m 228.6,669 c 0,-29.2 -16.5,-40.3 -35.4,-42.2 -18.9,-1.9 -36.7,11.5 -45.5,28.3 -8.8,16.8 -9.3,37.4 -9.8,56.4 -0.5,18.3 4.5,62.5 12.1,79.1 20.5,44.4 68.6,22.6 93.1,22.2 107.5,-2 407.5,-16.4 570.1,-9.1 69.3,3.1 57.4,-35.6 10.9,-54.1 -30,-11.9 -88.7,-42.2 -109.6,-65.9 C 686.5,652 595.5,466.3 588.2,412.4 581,358.5 574,296.5 535.7,257.9 493.3,215.3 458.8,203.2 398.8,200.1 c -56.3,-2.9 -115.3,6.1 -161.9,37.8 -46.6,31.7 -78.2,89.4 -67.7,144.8 10.5,55.4 74.1,86.4 124.8,91 -17.9,36.4 -43.7,130 -36.5,195.4 z"
   id="path60" />

</g>

</g>

</g>

</g>

</g>

</g>

</g>

</g>

<g
   id="g76">

<g
   id="g75">

<g
   id="g74">

<g
   id="g73">

<g
   id="g72">

<g
   id="g71">

<g
   id="g70">

<g
   id="g69">

<path
   class="st7"
   d="m 382.8,275.9 -1.7,-0.6 c -12,-3.6 -25.6,8.7 -23.1,21 2.4,12.3 19.7,18.5 29.4,10.5 9.7,-7.9 7,-26.1 -4.6,-30.9 z"
   id="path68" />

</g>

</g>

</g>

</g>

</g>

</g>

</g>

</g>

<g
   id="g84">

<g
   id="g83">

<g
   id="g82">

<g
   id="g81">

<g
   id="g80">

<g
   id="g79">

<g
   id="g78">

<g
   id="g77">

<path
   class="st7"
   d="m 383.6,606.3 c -6.4,0 -12.6,-0.9 -18.4,-2.8 -23.3,-7.4 -39,-31 -35.1,-52.7 3.2,-17.8 17.3,-30.5 29.3,-39.5 1.9,-1.4 3.8,-2.9 5.8,-4.3 10,-7.4 19.5,-14.3 25.2,-23.7 2.2,-3.5 6.8,-4.7 10.3,-2.5 3.5,2.2 4.7,6.8 2.5,10.3 -7.3,12 -18.4,20.2 -29.2,28.1 -1.9,1.4 -3.8,2.8 -5.6,4.2 -9.7,7.4 -21.2,17.4 -23.5,30.2 -2.6,14.3 8.8,30.7 24.8,35.7 15.1,4.8 33.6,1.2 49.6,-9.6 16,-10.8 27.6,-26.8 36.8,-41 2.3,-3.5 6.9,-4.5 10.4,-2.2 3.5,2.3 4.5,6.9 2.2,10.4 -10.1,15.5 -22.8,32.9 -41,45.2 -13.8,9.4 -29.4,14.2 -44.1,14.2 z"
   id="path76" />

</g>

</g>

</g>

</g>

</g>

</g>

</g>

</g>

<g
   id="g92">

<g
   id="g91">

<g
   id="g90">

<g
   id="g89">

<g
   id="g88">

<g
   id="g87">

<g
   id="g86">

<g
   id="g85">

<path
   class="st7"
   d="m 257.4,676.7 c -4.1,0 -7.4,-3.3 -7.5,-7.4 -0.1,-4.1 3.3,-7.5 7.4,-7.6 6.8,-0.1 13,-0.2 19,-0.3 14.4,-0.3 28.1,-0.6 49,-0.3 4.1,0.1 7.5,3.5 7.4,7.6 -0.1,4.1 -3.4,7.4 -7.5,7.4 0,0 -0.1,0 -0.1,0 -20.7,-0.3 -34.2,0 -48.5,0.3 -6,0.1 -12.2,0.2 -19.2,0.3 0.1,0 0,0 0,0 z"
   id="path84" />

</g>

</g>

</g>

</g>

</g>

</g>

</g>

</g>

</g>

</g>

<g
   class="st0"
   id="colored_x5F_line"
   transform="translate(-8.3650866,-21.23366)">

<g
   class="st3"
   id="g95">

<g
   id="g94">

<path
   class="st8"
   d="m 228.6,669 c 0,-29.2 -16.5,-40.3 -35.4,-42.2 -18.9,-1.9 -36.7,11.5 -45.5,28.3 -8.8,16.8 -9.3,37.4 -9.8,56.4 -0.5,18.3 4.5,62.5 12.1,79.1 20.5,44.4 68.6,22.6 93.1,22.2 107.5,-2 407.5,-16.4 570.1,-9.1 69.3,3.1 57.4,-35.6 10.9,-54.1 -30,-11.9 -88.7,-42.2 -109.6,-65.9 C 686.5,652 595.5,466.3 588.2,412.4 581,358.5 574,296.5 535.7,257.9 493.3,215.3 458.8,203.2 398.8,200.1 c -56.3,-2.9 -115.3,6.1 -161.9,37.8 -46.6,31.7 -78.2,89.4 -67.7,144.8 10.5,55.4 74.1,86.4 124.8,91 -17.9,36.4 -43.7,130 -36.5,195.4 z"
   id="path93" />

</g>

</g>

<g
   class="st3"
   id="g97">

<g
   id="g96">

<path
   class="st16"
   d="m 382.8,275.9 -1.7,-0.6 c -12,-3.6 -25.6,8.7 -23.1,21 2.4,12.3 19.7,18.5 29.4,10.5 9.7,-7.9 7,-26.1 -4.6,-30.9 z"
   id="path95" />

</g>

</g>

<g
   class="st3"
   id="g99">

<g
   id="g98">

<path
   class="st16"
   d="m 383.6,606.3 c -6.4,0 -12.6,-0.9 -18.4,-2.8 -23.3,-7.4 -39,-31 -35.1,-52.7 3.2,-17.8 17.3,-30.5 29.3,-39.5 1.9,-1.4 3.8,-2.9 5.8,-4.3 10,-7.4 19.5,-14.3 25.2,-23.7 2.2,-3.5 6.8,-4.7 10.3,-2.5 3.5,2.2 4.7,6.8 2.5,10.3 -7.3,12 -18.4,20.2 -29.2,28.1 -1.9,1.4 -3.8,2.8 -5.6,4.2 -9.7,7.4 -21.2,17.4 -23.5,30.2 -2.6,14.3 8.8,30.7 24.8,35.7 15.1,4.8 33.6,1.2 49.6,-9.6 16,-10.8 27.6,-26.8 36.8,-41 2.3,-3.5 6.9,-4.5 10.4,-2.2 3.5,2.3 4.5,6.9 2.2,10.4 -10.1,15.5 -22.8,32.9 -41,45.2 -13.8,9.4 -29.4,14.2 -44.1,14.2 z"
   id="path97" />

</g>

</g>

<g
   class="st3"
   id="g101">

<g
   id="g100">

<path
   class="st16"
   d="m 257.4,676.7 c -4.1,0 -7.4,-3.3 -7.5,-7.4 -0.1,-4.1 3.3,-7.5 7.4,-7.6 6.8,-0.1 13,-0.2 19,-0.3 14.4,-0.3 28.1,-0.6 49,-0.3 4.1,0.1 7.5,3.5 7.4,7.6 -0.1,4.1 -3.4,7.4 -7.5,7.4 0,0 -0.1,0 -0.1,0 -20.7,-0.3 -34.2,0 -48.5,0.3 -6,0.1 -12.2,0.2 -19.2,0.3 0.1,0 0,0 0,0 z"
   id="path99" />

</g>

</g>

<g
   class="st3"
   id="g102">

<path
   class="st16"
   d="m 256.7,233.6 c -4.1,0 -7.5,-3.4 -7.5,-7.5 v 0 c 0,-0.4 0,-0.7 0.1,-1.1 2.7,-18.5 6.8,-37 12.3,-54.9 6.6,-21.8 17.2,-33.8 31.3,-35.8 9.2,-1.3 19.1,2.2 27.1,9.6 6.5,6 11,13.6 14.9,20.3 4.2,7.2 8.4,14.3 12.6,21.5 l 6.8,11.6 c 2.1,3.6 0.9,8.2 -2.7,10.3 -3.6,2.1 -8.2,0.9 -10.3,-2.7 l -6.8,-11.6 c -4.2,-7.2 -8.4,-14.3 -12.6,-21.5 -3.6,-6.1 -7.2,-12.3 -12.1,-16.8 -4.6,-4.3 -10.2,-6.4 -14.8,-5.8 -7.9,1.1 -14.3,9.7 -19.1,25.4 -5.2,17.2 -9.2,34.9 -11.8,52.6 -0.5,3.6 -3.6,6.4 -7.4,6.4 z"
   id="path101" />

</g>

<g
   class="st3"
   id="g103">

<path
   class="st16"
   d="m 507.5,240.8 c -0.2,0 -0.4,0 -0.6,0 -4.1,-0.3 -7.2,-3.9 -6.9,-8 1.3,-17.1 1,-34.3 -1,-51.2 -1.2,-10.9 -4,-17.1 -8.5,-19.1 -5,-2.2 -12.4,1.4 -17.6,4.8 -15.1,9.9 -28.1,23.5 -37.4,39.4 -2.1,3.6 -6.7,4.8 -10.3,2.7 -3.6,-2.1 -4.8,-6.7 -2.7,-10.3 10.5,-17.9 25.1,-33.2 42.2,-44.3 12.1,-7.9 22.8,-9.9 31.8,-6 14.6,6.4 16.7,25 17.4,31.1 2,17.8 2.4,36 1,54 -0.2,3.9 -3.5,6.9 -7.4,6.9 z"
   id="path102" />

</g>

<g
   class="st3"
   id="g104">

<path
   class="st16"
   d="m 581.5,373.1 c -2.3,0 -4.5,-1 -6,-3 -2.5,-3.3 -1.9,-8 1.4,-10.5 18.1,-13.7 33.8,-31.2 45.6,-50.5 4.1,-6.8 10.2,-19.2 4.9,-26.8 -3.5,-5 -11.7,-7.1 -24.2,-6.1 -16.4,1.3 -32.6,4.7 -48.3,10 -3.9,1.3 -8.2,-0.8 -9.5,-4.7 -1.3,-3.9 0.8,-8.2 4.7,-9.5 16.8,-5.7 34.2,-9.3 51.8,-10.7 18.5,-1.5 30.8,2.6 37.7,12.4 7.7,11 6.2,25.9 -4.3,43.2 -12.9,21.2 -29.5,39.6 -49.3,54.7 -1.4,1 -2.9,1.5 -4.5,1.5 z"
   id="path103" />

</g>

<g
   class="st3"
   id="g105">

<path
   class="st16"
   d="m 622.7,518.1 c -1.7,0 -3.5,-0.6 -4.9,-1.8 -3.1,-2.7 -3.5,-7.4 -0.8,-10.6 12.5,-14.5 24.9,-28.9 37.4,-43.4 l 1.3,-1.6 c 5.9,-6.8 12,-14.7 10.5,-21.8 -1.1,-5.4 -6.8,-9.4 -11.9,-10.9 -6.8,-2.1 -14.6,-1.6 -22.2,-1.1 -13.9,0.8 -27.8,1.7 -41.7,2.6 -4.2,0.2 -7.7,-2.9 -7.9,-7 -0.2,-4.1 2.9,-7.7 7,-7.9 13.9,-0.9 27.8,-1.7 41.7,-2.6 8.5,-0.5 18.1,-1.1 27.5,1.7 11.6,3.5 20.1,12.1 22.2,22.3 3,14.9 -8,27.7 -13.9,34.6 l -1.3,1.6 c -12.5,14.5 -24.9,28.9 -37.4,43.4 -1.4,1.6 -3.5,2.5 -5.6,2.5 z"
   id="path104" />

</g>

<g
   class="st3"
   id="g106">

<path
   class="st16"
   d="m 693.3,659.4 c -1.4,0 -2.8,-0.4 -4.1,-1.2 -3.5,-2.3 -4.5,-6.9 -2.2,-10.4 l 23.6,-36.3 c 10.6,-16.3 9.2,-22.8 7.2,-26.2 -4.3,-7.5 -17.6,-7.3 -25.1,-6.5 -12.2,1.3 -24.4,3.6 -36.2,7 -4,1.1 -8.1,-1.2 -9.3,-5.1 -1.1,-4 1.2,-8.1 5.1,-9.3 12.7,-3.6 25.8,-6.2 38.8,-7.5 24.8,-2.6 35.2,6.2 39.7,14 8.1,14.2 0.2,29.8 -7.6,41.8 L 699.6,656 c -1.4,2.2 -3.8,3.4 -6.3,3.4 z"
   id="path105" />

</g>

<g
   class="st3"
   id="g107">

<path
   class="st16"
   d="m 806.7,749.5 c -0.4,0 -0.7,0 -1.1,-0.1 -4.1,-0.6 -7,-4.4 -6.4,-8.5 1.2,-8.2 1.2,-16.5 0,-24.5 -2.4,-16.5 -10,-20.3 -12.2,-21 -7.1,-2.4 -16,2.5 -23.8,7.4 -4,2.5 -8,5 -12.1,7.5 l -4.6,2.9 c -3.5,2.2 -8.1,1.1 -10.3,-2.4 -2.2,-3.5 -1.1,-8.1 2.4,-10.3 l 4.6,-2.9 c 4,-2.5 8.1,-5 12.1,-7.5 7.7,-4.8 22.1,-13.7 36.5,-8.8 11.7,4 19.8,16 22.2,33.1 1.4,9.4 1.4,19.1 0,28.8 -0.5,3.6 -3.7,6.3 -7.3,6.3 z"
   id="path106" />

</g>

</g>

</svg>
