<svg xmlns="http://www.w3.org/2000/svg" version="1.1" xmlns:xlink="http://www.w3.org/1999/xlink" xmlns:svgjs="http://svgjs.com/svgjs" width="1000" height="1000"><rect width="1000" height="1000" rx="150" ry="150" fill="#c3f9d5"></rect><g transform="matrix(19.047619047619047,0,0,19.047619047619047,99.99982793911892,128.57142857142856)"><svg xmlns="http://www.w3.org/2000/svg" version="1.1" xmlns:xlink="http://www.w3.org/1999/xlink" xmlns:svgjs="http://svgjs.com/svgjs" width="42" height="39"><svg width="42" height="39" viewBox="0 0 42 39" fill="none" xmlns="http://www.w3.org/2000/svg">
<g id="dino" clip-path="url(#clip0_24_322)">
<g id="Mask group">
<mask id="mask0_24_322" style="mask-type:luminance" maskUnits="userSpaceOnUse" x="0" y="0" width="42" height="39">
<g id="Group">
<path id="path1" d="M13.4537 10.2671C13.6356 10.3291 13.8174 10.3629 13.9936 10.3629C14.3119 10.3629 14.6131 10.2615 14.8574 10.0642C15.2325 9.75985 15.4087 9.26387 15.3291 8.73971C15.2496 8.21555 14.937 7.79285 14.488 7.60685C14.4653 7.59558 14.3744 7.5674 14.3516 7.55613C13.8856 7.41523 13.3742 7.54486 12.9763 7.89993C12.5785 8.25501 12.3967 8.75099 12.4933 9.22442C12.5899 9.69785 12.9479 10.0867 13.4537 10.2671ZM13.5503 8.53118C13.6583 8.43536 13.8174 8.35082 13.9766 8.35082C14.0675 8.35082 14.1357 8.379 14.1584 8.39027C14.3687 8.49172 14.4539 8.68899 14.4824 8.86371C14.5108 9.03843 14.4767 9.27514 14.3119 9.41041C14.1471 9.54568 13.9027 9.52877 13.7379 9.46677C13.5674 9.40477 13.3742 9.26951 13.3287 9.06097C13.2889 8.85243 13.4196 8.64953 13.5503 8.53118ZM39.5616 34.2995C39.3456 34.2149 39.1126 34.1191 38.8739 34.012C38.9137 33.5724 38.9024 33.1328 38.8398 32.7045C38.6978 31.7407 38.2374 31.0644 37.5782 30.8389C36.7598 30.5627 35.9415 31.0644 35.5039 31.3349C35.2766 31.4758 35.0436 31.6167 34.8162 31.7576L34.7878 31.7745C34.2479 31.4025 33.7933 31.0362 33.4978 30.698C33.2477 30.4162 32.8897 29.892 32.4748 29.1988L33.674 27.3727C34.1172 26.6964 34.5662 25.8115 34.1059 25.0168C33.8558 24.5772 33.2591 24.0868 31.8497 24.2277C31.2246 24.2897 30.5994 24.4025 29.9857 24.5603C29.4571 23.4894 28.9343 22.3791 28.4569 21.3026C29.1105 20.553 29.7583 19.8034 30.4119 19.0538L30.4858 18.9636C30.8211 18.5747 31.4462 17.8589 31.2757 17.0135C31.1564 16.4386 30.6733 15.9596 30.0141 15.7567C29.4799 15.5932 28.9343 15.627 28.4513 15.6609C27.7863 15.7003 27.1157 15.7398 26.4508 15.7849C26.4395 15.7341 26.4338 15.6778 26.4281 15.6327L26.3826 15.2889C26.2917 14.6182 26.2008 13.9249 26.0871 13.2373C27.1271 12.4201 27.9966 11.4338 28.6843 10.3122C29.281 9.33714 29.3662 8.49736 28.9286 7.87739C28.5365 7.32505 27.8318 7.09397 26.7861 7.17851C25.8939 7.25178 25.0073 7.42086 24.1549 7.68012C23.9105 7.32505 23.6377 6.99252 23.3252 6.68253C22.825 6.18092 22.342 5.75821 21.8646 5.39186C21.9214 4.45063 21.8987 3.5094 21.7907 2.57944C21.751 2.23564 21.6316 1.18732 20.8019 0.826611C20.2904 0.606803 19.6823 0.719525 18.9947 1.16478C18.1024 1.73966 17.3296 2.51745 16.7499 3.42486C16.2952 3.37413 15.8008 3.33468 15.2609 3.3065C14.3346 3.26141 13.4367 3.27268 12.5785 3.33468L12.3285 2.91197C12.0898 2.50617 11.8511 2.10601 11.6124 1.70021C11.3908 1.32259 11.135 0.894244 10.7657 0.556078C10.311 0.139005 9.74839 -0.0582581 9.22555 0.0150113C8.41856 0.127734 7.82184 0.809703 7.44676 2.03274C7.15692 2.97397 6.93529 3.94338 6.78184 4.91843C6.44086 5.09878 6.11693 5.29605 5.80436 5.50458C4.4177 6.44018 3.247 7.7703 2.51957 9.24696C1.73531 10.842 1.47957 12.5159 1.78077 14.094C2.36044 17.1093 5.58272 19.0313 8.66293 19.4934C7.63998 21.8662 6.52042 26.3638 6.75343 29.7399C6.50906 29.7399 6.25332 29.7399 5.98622 29.7342C5.84983 28.3477 5.00305 27.4854 3.61071 27.3502C2.64459 27.2543 1.34318 27.7841 0.610069 29.1706C0.0701804 30.1851 0.0360823 31.4082 0.00198411 32.4847V32.5354C-0.026431 33.5555 0.252038 36.1594 0.729413 37.1852C1.41138 38.6506 2.57072 39 3.69596 39C4.29836 39 4.89508 38.8985 5.40087 38.814C5.78163 38.7464 6.13966 38.6844 6.41245 38.6844C8.01506 38.6562 10.3849 38.5773 13.1355 38.4871C21.0917 38.2279 31.9861 37.8671 38.783 38.1715C39.8685 38.2222 41.7211 38.1208 41.9769 36.9315C42.1644 36.0016 41.1983 34.9476 39.5616 34.2995ZM35.9415 32.0563C36.3848 31.7858 36.8906 31.504 37.2941 31.6392C37.4248 31.6843 37.851 31.8985 37.9874 32.8228C38.0272 33.0877 38.0385 33.3526 38.0328 33.6231C37.2202 33.2286 36.345 32.7608 35.5664 32.2818C35.6914 32.2085 35.8165 32.1296 35.9415 32.0563ZM31.935 25.0675C32.3669 25.0224 33.1227 25.0112 33.3614 25.4339C33.4751 25.6311 33.5546 25.9919 32.9522 26.9105L31.9918 28.3759C31.4917 27.4967 30.9347 26.4484 30.3664 25.3324C30.8836 25.2084 31.4064 25.1183 31.935 25.0675ZM28.4967 16.5063C28.9286 16.4781 29.3719 16.4499 29.7583 16.5683C30.0482 16.6584 30.3721 16.8783 30.4346 17.1826C30.5142 17.5828 30.1675 18.028 29.8379 18.4113L29.764 18.5015C29.2014 19.1496 28.6445 19.7921 28.0819 20.4403C27.451 18.9749 26.9396 17.6279 26.6497 16.619C27.2578 16.5795 27.8773 16.5457 28.4967 16.5063ZM26.843 8.01829C27.5533 7.96193 28.0193 8.07465 28.2182 8.36209C28.5194 8.79044 28.1728 9.48932 27.9398 9.87257C27.3942 10.7631 26.6952 11.5859 25.8939 12.2792C25.6211 10.9265 25.2403 9.5964 24.5982 8.42973C25.3369 8.21555 26.0871 8.08029 26.843 8.01829ZM19.4493 1.87493C19.7448 1.6833 20.1597 1.4804 20.4495 1.60439C20.7053 1.71712 20.8644 2.06656 20.9326 2.68089C21.0122 3.39104 21.0463 4.10683 21.0235 4.82262C20.5802 4.54645 20.1256 4.321 19.6539 4.12937C19.0458 3.88138 18.4036 3.70103 17.6705 3.56576C18.1593 2.89506 18.7617 2.31455 19.4493 1.87493ZM8.24807 2.28073C8.52085 1.39586 8.88457 0.916789 9.33352 0.849156C9.59494 0.809703 9.91319 0.933697 10.1746 1.17605C10.4531 1.42967 10.6634 1.78475 10.8623 2.12292C11.1009 2.52872 11.3396 2.92888 11.5783 3.33468L11.6352 3.43049C10.2087 3.61649 8.89025 3.96029 7.70818 4.46754C7.84457 3.72921 8.02643 2.99651 8.24807 2.28073ZM41.1301 36.7456C41.079 36.9935 40.5277 37.3937 38.8057 37.3148C31.969 37.0104 21.0576 37.3712 13.09 37.6304C10.3451 37.7206 7.98096 37.7995 6.38403 37.8277C6.04873 37.8333 5.6566 37.901 5.24174 37.9742C3.55388 38.2617 2.207 38.3631 1.49094 36.8245C1.10449 35.9903 0.808975 33.5724 0.843073 32.5523V32.5016C0.871488 31.4702 0.905586 30.4049 1.34886 29.5595C1.73531 28.8325 2.5764 28.0941 3.5141 28.1899C4.59388 28.297 5.13945 28.9508 5.13945 30.1457C5.13945 30.3711 5.3213 30.5627 5.55431 30.5684C6.61703 30.6022 7.50927 30.5796 8.37309 30.5571C9.19713 30.5346 10.0496 30.5176 11.0384 30.5458C11.0441 30.5458 11.0441 30.5458 11.0498 30.5458C11.2771 30.5458 11.4703 30.3655 11.476 30.1344C11.4817 29.9033 11.2999 29.706 11.0612 29.7004C10.0496 29.6722 9.18577 29.6948 8.35036 29.7117C8.10031 29.7173 7.84457 29.723 7.58883 29.7286C7.32741 26.1102 8.74249 21.1673 9.65746 19.33C9.85636 18.9805 9.77112 18.7607 9.31079 18.7213C7.83889 18.586 6.30447 18.0675 5.09966 17.2953C4.13355 16.6754 2.9117 15.5876 2.59913 13.9306C2.33203 12.5328 2.55935 11.0392 3.26404 9.61331C3.92896 8.26628 4.99737 7.04888 6.26469 6.19783C8.5379 4.67044 11.6295 3.96029 15.2041 4.14065C15.8292 4.17446 16.3805 4.21955 16.8863 4.28718C16.892 4.28718 16.8976 4.28718 16.9033 4.28718C17.8467 4.41681 18.6196 4.61408 19.33 4.90152C19.9551 5.15515 20.5462 5.48204 21.1429 5.91602C21.1486 5.91602 21.1486 5.92166 21.1542 5.92166C21.66 6.288 22.1715 6.73326 22.7057 7.26869C24.7004 9.25823 25.138 12.5159 25.5245 15.3847L25.57 15.7285C25.5927 15.9032 25.6325 16.0948 25.6836 16.309C25.6836 16.3146 25.6836 16.3203 25.6893 16.3259C26.394 19.3018 29.5538 25.9017 31.5769 29.3341C31.5883 29.3679 31.611 29.3961 31.6338 29.4299C32.1282 30.2697 32.5544 30.9065 32.8556 31.2391C33.242 31.673 33.8331 32.1408 34.5207 32.5974C34.5321 32.603 34.5435 32.6143 34.5548 32.6199C36.0495 33.6119 37.9874 34.57 39.249 35.066C40.6527 35.6409 41.204 36.4074 41.1301 36.7456ZM19.205 23.2696C18.631 24.1432 17.9092 25.1239 16.8749 25.8171C16.0907 26.3413 15.2041 26.6175 14.3687 26.6175C14.005 26.6175 13.6526 26.5667 13.323 26.4596C11.9989 26.0426 11.1066 24.7125 11.3283 23.4894C11.5101 22.4862 12.3114 21.7704 12.9934 21.2632C13.1014 21.1842 13.2094 21.0997 13.323 21.0208C13.8913 20.6037 14.4312 20.2148 14.7551 19.685C14.8802 19.4878 15.1416 19.4201 15.3405 19.5441C15.5394 19.6681 15.6076 19.9274 15.4826 20.1247C15.0677 20.801 14.4369 21.2632 13.8231 21.7084C13.7151 21.7873 13.6072 21.8662 13.5049 21.9451C12.9536 22.3622 12.3001 22.9258 12.1694 23.6472C12.0216 24.4532 12.6695 25.3775 13.5788 25.6593C14.4369 25.9299 15.4883 25.727 16.3975 25.1183C17.3068 24.5096 17.9661 23.6078 18.4889 22.8074C18.6196 22.6102 18.881 22.5538 19.0799 22.6835C19.2788 22.8131 19.33 23.078 19.205 23.2696Z" fill="white"></path>
</g>
</mask>
<g mask="url(#mask0_24_322)">
<g id="Clip path group">
<mask id="mask1_24_322" style="mask-type:luminance" maskUnits="userSpaceOnUse" x="0" y="0" width="42" height="39">
<g id="clipPath31">
<path id="path32" d="M0 0V39H42V0H0ZM16.209 17.3809C17.687 17.3247 18.3217 18.7706 17.1504 19.9414C17.1807 20.0958 17.0954 20.336 16.834 20.7031C16.7958 20.7568 16.7589 20.8116 16.7207 20.8652C16.6689 20.9219 16.6183 20.9804 16.5645 21.0352C16.4059 21.1964 16.208 21.3149 16.0098 21.4199C15.7725 21.5364 15.527 21.6319 15.2734 21.707C15.0032 21.785 14.7303 21.8536 14.4531 21.9023C14.2571 21.9363 14.0615 21.9732 13.8652 22.0059C13.7683 22.0212 13.7914 22.0093 13.6816 22.0469C13.5458 22.0937 13.4117 22.1446 13.2852 22.2129C13.2854 22.2106 13.2875 22.2067 13.2852 22.207C13.2787 22.208 13.2637 22.222 13.2676 22.2168C13.2197 22.2668 13.1556 22.3351 13.1445 22.3437C12.9789 22.5274 12.8122 22.71 12.6641 22.9082C12.6419 22.9378 12.6437 22.9367 12.6328 22.9512C12.7009 23.1464 12.772 23.3408 12.8574 23.5293C12.9918 23.8504 13.1206 24.175 13.2402 24.502C13.276 24.6029 13.3098 24.7033 13.3437 24.8047C13.4022 24.8438 13.4638 24.8756 13.5273 24.9062C13.5621 24.9006 13.5911 24.8962 13.6777 24.8809C14.0364 24.8143 14.3919 24.7411 14.748 24.6621C14.9224 24.6227 14.8591 24.6365 15.0156 24.5996C15.0241 24.5976 15.0325 24.5958 15.041 24.5937C15.2274 24.4174 15.4127 24.2381 15.5879 24.0507C15.8601 23.754 16.1207 23.4459 16.3809 23.1386C16.7326 22.7236 17.0901 22.3146 17.4668 21.9218C17.8351 21.5331 18.203 21.1436 18.5977 20.7812C20.8764 18.689 23.0154 20.9727 20.7344 23.0625C20.3857 23.3819 20.0613 23.7272 19.7363 24.0703C19.3994 24.421 19.0799 24.7871 18.7656 25.1582C18.4813 25.496 18.1919 25.8317 17.8945 26.1582C17.6673 26.4045 17.4262 26.638 17.1836 26.8691C17.026 27.0156 16.8653 27.1617 16.6816 27.2754C16.62 27.3135 16.5568 27.3482 16.4941 27.3847C16.1667 27.5594 15.7978 27.6277 15.4395 27.7089C15.0445 27.7972 14.6477 27.8785 14.25 27.9531C14.0616 27.9866 14.0587 27.9884 13.8633 28.0156C13.8086 28.0232 13.7543 28.0348 13.6992 28.0371C13.5632 28.0427 13.427 28.0467 13.291 28.041C13.2015 28.0373 13.1112 28.0278 13.0234 28.0097C12.884 27.981 12.749 27.9366 12.6113 27.9003C12.2451 27.7693 11.8909 27.5983 11.5703 27.377C11.5108 27.3358 11.453 27.2926 11.3945 27.25C11.1893 27.0968 11.0063 26.9228 10.8438 26.7246C10.7449 26.6041 10.6952 26.5082 10.6152 26.373C10.472 26.1154 10.3971 25.8299 10.2969 25.5547C10.1954 25.2807 10.0881 25.0075 9.97461 24.7383C9.85165 24.4623 9.74903 24.1799 9.65039 23.8945C9.56445 23.6579 9.50519 23.4114 9.46094 23.1641C9.42073 22.8992 9.39586 22.6229 9.45899 22.3594C9.48575 22.2476 9.52412 22.1395 9.55664 22.0293C9.69625 21.6703 9.92579 21.3567 10.1523 21.0488C10.3586 20.7691 10.59 20.5101 10.8223 20.252C11.0152 20.035 11.2225 19.8282 11.4648 19.666C11.537 19.6177 11.6138 19.5734 11.6875 19.5273C11.9057 19.3993 12.1365 19.2995 12.3711 19.207C12.3082 19.0789 12.2508 18.9479 12.1992 18.8145C11.5866 17.2308 12.7949 17.9559 13.8652 18.4434C13.9814 18.3358 14.1108 18.2422 14.2441 18.1562C14.28 18.1363 14.3157 18.1157 14.3516 18.0957C14.3528 18.0949 14.3543 18.0946 14.3555 18.0937C14.3665 18.0859 14.3775 18.0778 14.3887 18.0703C14.481 18.0071 14.5549 17.9581 14.6894 17.8769C14.8051 17.8131 14.7584 17.8384 14.8281 17.8007C15.3383 17.5248 15.8052 17.3962 16.209 17.3809ZM14.6328 18.1758C14.6036 18.1761 14.5759 18.1767 14.5469 18.1797C14.301 18.2047 14.0732 18.3017 13.8789 18.4492C14.0831 18.5419 14.2813 18.6249 14.4609 18.6816C14.515 18.665 14.5754 18.6492 14.6055 18.6269C14.5695 18.6464 14.5411 18.6732 14.5098 18.6973C14.9469 18.8256 15.2595 18.7783 15.2383 18.2832C15.181 18.258 15.1226 18.2347 15.0625 18.2168C15.0083 18.2006 14.9519 18.195 14.8965 18.1836C14.8089 18.1828 14.7203 18.1747 14.6328 18.1758ZM15.6133 18.541C15.6307 18.5652 15.6478 18.5897 15.666 18.6133C15.6502 18.5767 15.6376 18.5636 15.6133 18.541ZM13.4453 24.918C13.4169 24.9198 13.3853 24.9254 13.3125 24.9355C13.2791 24.9402 13.3806 24.9281 13.4141 24.9238C13.4297 24.9218 13.4334 24.9196 13.4453 24.918Z" fill="white"></path>
</g>
</mask>
<g mask="url(#mask1_24_322)">
<path id="path2" d="M13.4537 10.2671C13.6356 10.3291 13.8174 10.3629 13.9936 10.3629C14.3119 10.3629 14.6131 10.2615 14.8574 10.0642C15.2325 9.75985 15.4087 9.26387 15.3291 8.73971C15.2496 8.21555 14.937 7.79285 14.488 7.60685C14.4653 7.59558 14.3744 7.5674 14.3516 7.55613C13.8856 7.41523 13.3742 7.54486 12.9763 7.89993C12.5785 8.25501 12.3967 8.75099 12.4933 9.22442C12.5899 9.69785 12.9479 10.0867 13.4537 10.2671ZM13.5503 8.53118C13.6583 8.43536 13.8174 8.35082 13.9766 8.35082C14.0675 8.35082 14.1357 8.379 14.1584 8.39027C14.3687 8.49172 14.4539 8.68899 14.4824 8.86371C14.5108 9.03843 14.4767 9.27514 14.3119 9.41041C14.1471 9.54568 13.9027 9.52877 13.7379 9.46677C13.5674 9.40477 13.3742 9.26951 13.3287 9.06097C13.2889 8.85243 13.4196 8.64953 13.5503 8.53118ZM39.5616 34.2995C39.3456 34.2149 39.1126 34.1191 38.8739 34.012C38.9137 33.5724 38.9024 33.1328 38.8398 32.7045C38.6978 31.7407 38.2374 31.0644 37.5782 30.8389C36.7598 30.5627 35.9415 31.0644 35.5039 31.3349C35.2766 31.4758 35.0436 31.6167 34.8162 31.7576L34.7878 31.7745C34.2479 31.4025 33.7933 31.0362 33.4978 30.698C33.2477 30.4162 32.8897 29.892 32.4748 29.1988L33.674 27.3727C34.1172 26.6964 34.5662 25.8115 34.1059 25.0168C33.8558 24.5772 33.2591 24.0868 31.8497 24.2277C31.2246 24.2897 30.5994 24.4025 29.9857 24.5603C29.4571 23.4894 28.9343 22.3791 28.4569 21.3026C29.1105 20.553 29.7583 19.8034 30.4119 19.0538L30.4858 18.9636C30.8211 18.5747 31.4462 17.8589 31.2757 17.0135C31.1564 16.4386 30.6733 15.9596 30.0141 15.7567C29.4799 15.5932 28.9343 15.627 28.4513 15.6609C27.7863 15.7003 27.1157 15.7398 26.4508 15.7849C26.4395 15.7341 26.4338 15.6778 26.4281 15.6327L26.3826 15.2889C26.2917 14.6182 26.2008 13.9249 26.0871 13.2373C27.1271 12.4201 27.9966 11.4338 28.6843 10.3122C29.281 9.33714 29.3662 8.49736 28.9286 7.87739C28.5365 7.32505 27.8318 7.09397 26.7861 7.17851C25.8939 7.25178 25.0073 7.42086 24.1549 7.68012C23.9105 7.32505 23.6377 6.99252 23.3252 6.68253C22.825 6.18092 22.342 5.75821 21.8646 5.39186C21.9214 4.45063 21.8987 3.5094 21.7907 2.57944C21.751 2.23564 21.6316 1.18732 20.8019 0.826611C20.2904 0.606803 19.6823 0.719525 18.9947 1.16478C18.1024 1.73966 17.3296 2.51745 16.7499 3.42486C16.2952 3.37413 15.8008 3.33468 15.2609 3.3065C14.3346 3.26141 13.4367 3.27268 12.5785 3.33468L12.3285 2.91197C12.0898 2.50617 11.8511 2.10601 11.6124 1.70021C11.3908 1.32259 11.135 0.894244 10.7657 0.556078C10.311 0.139005 9.74839 -0.0582581 9.22555 0.0150113C8.41856 0.127734 7.82184 0.809703 7.44676 2.03274C7.15692 2.97397 6.93529 3.94338 6.78184 4.91843C6.44086 5.09878 6.11693 5.29605 5.80436 5.50458C4.4177 6.44018 3.247 7.7703 2.51957 9.24696C1.73531 10.842 1.47957 12.5159 1.78077 14.094C2.36044 17.1093 5.58272 19.0313 8.66293 19.4934C7.63998 21.8662 6.52042 26.3638 6.75343 29.7399C6.50906 29.7399 6.25332 29.7399 5.98622 29.7342C5.84983 28.3477 5.00305 27.4854 3.61071 27.3502C2.64459 27.2543 1.34318 27.7841 0.610069 29.1706C0.0701804 30.1851 0.0360823 31.4082 0.00198411 32.4847V32.5354C-0.026431 33.5555 0.252038 36.1594 0.729413 37.1852C1.41138 38.6506 2.57072 39 3.69596 39C4.29836 39 4.89508 38.8985 5.40087 38.814C5.78163 38.7464 6.13966 38.6844 6.41245 38.6844C8.01506 38.6562 10.3849 38.5773 13.1355 38.4871C21.0917 38.2279 31.9861 37.8671 38.783 38.1715C39.8685 38.2222 41.7211 38.1208 41.9769 36.9315C42.1644 36.0016 41.1983 34.9476 39.5616 34.2995ZM35.9415 32.0563C36.3848 31.7858 36.8906 31.504 37.2941 31.6392C37.4248 31.6843 37.851 31.8985 37.9874 32.8228C38.0272 33.0877 38.0385 33.3526 38.0328 33.6231C37.2202 33.2286 36.345 32.7608 35.5664 32.2818C35.6914 32.2085 35.8165 32.1296 35.9415 32.0563ZM31.935 25.0675C32.3669 25.0224 33.1227 25.0112 33.3614 25.4339C33.4751 25.6311 33.5546 25.9919 32.9522 26.9105L31.9918 28.3759C31.4917 27.4967 30.9347 26.4484 30.3664 25.3324C30.8836 25.2084 31.4064 25.1183 31.935 25.0675ZM28.4967 16.5063C28.9286 16.4781 29.3719 16.4499 29.7583 16.5683C30.0482 16.6584 30.3721 16.8783 30.4346 17.1826C30.5142 17.5828 30.1675 18.028 29.8379 18.4113L29.764 18.5015C29.2014 19.1496 28.6445 19.7921 28.0819 20.4403C27.451 18.9749 26.9396 17.6279 26.6497 16.619C27.2578 16.5795 27.8773 16.5457 28.4967 16.5063ZM26.843 8.01829C27.5533 7.96193 28.0193 8.07465 28.2182 8.36209C28.5194 8.79044 28.1728 9.48932 27.9398 9.87257C27.3942 10.7631 26.6952 11.5859 25.8939 12.2792C25.6211 10.9265 25.2403 9.5964 24.5982 8.42973C25.3369 8.21555 26.0871 8.08029 26.843 8.01829ZM19.4493 1.87493C19.7448 1.6833 20.1597 1.4804 20.4495 1.60439C20.7053 1.71712 20.8644 2.06656 20.9326 2.68089C21.0122 3.39104 21.0463 4.10683 21.0235 4.82262C20.5802 4.54645 20.1256 4.321 19.6539 4.12937C19.0458 3.88138 18.4036 3.70103 17.6705 3.56576C18.1593 2.89506 18.7617 2.31455 19.4493 1.87493ZM8.24807 2.28073C8.52085 1.39586 8.88457 0.916789 9.33352 0.849156C9.59494 0.809703 9.91319 0.933697 10.1746 1.17605C10.4531 1.42967 10.6634 1.78475 10.8623 2.12292C11.1009 2.52872 11.3396 2.92888 11.5783 3.33468L11.6352 3.43049C10.2087 3.61649 8.89025 3.96029 7.70818 4.46754C7.84457 3.72921 8.02643 2.99651 8.24807 2.28073ZM41.1301 36.7456C41.079 36.9935 40.5277 37.3937 38.8057 37.3148C31.969 37.0104 21.0576 37.3712 13.09 37.6304C10.3451 37.7206 7.98096 37.7995 6.38403 37.8277C6.04873 37.8333 5.6566 37.901 5.24174 37.9742C3.55388 38.2617 2.207 38.3631 1.49094 36.8245C1.10449 35.9903 0.808975 33.5724 0.843073 32.5523V32.5016C0.871488 31.4702 0.905586 30.4049 1.34886 29.5595C1.73531 28.8325 2.5764 28.0941 3.5141 28.1899C4.59388 28.297 5.13945 28.9508 5.13945 30.1457C5.13945 30.3711 5.3213 30.5627 5.55431 30.5684C6.61703 30.6022 7.50927 30.5796 8.37309 30.5571C9.19713 30.5346 10.0496 30.5176 11.0384 30.5458C11.0441 30.5458 11.0441 30.5458 11.0498 30.5458C11.2771 30.5458 11.4703 30.3655 11.476 30.1344C11.4817 29.9033 11.2999 29.706 11.0612 29.7004C10.0496 29.6722 9.18577 29.6948 8.35036 29.7117C8.10031 29.7173 7.84457 29.723 7.58883 29.7286C7.32741 26.1102 8.74249 21.1673 9.65746 19.33C9.85636 18.9805 9.77112 18.7607 9.31079 18.7213C7.83889 18.586 6.30447 18.0675 5.09966 17.2953C4.13355 16.6754 2.9117 15.5876 2.59913 13.9306C2.33203 12.5328 2.55935 11.0392 3.26404 9.61331C3.92896 8.26628 4.99737 7.04888 6.26469 6.19783C8.5379 4.67044 11.6295 3.96029 15.2041 4.14065C15.8292 4.17446 16.3805 4.21955 16.8863 4.28718C16.892 4.28718 16.8976 4.28718 16.9033 4.28718C17.8467 4.41681 18.6196 4.61408 19.33 4.90152C19.9551 5.15515 20.5462 5.48204 21.1429 5.91602C21.1486 5.91602 21.1486 5.92166 21.1542 5.92166C21.66 6.288 22.1715 6.73326 22.7057 7.26869C24.7004 9.25823 25.138 12.5159 25.5245 15.3847L25.57 15.7285C25.5927 15.9032 25.6325 16.0948 25.6836 16.309C25.6836 16.3146 25.6836 16.3203 25.6893 16.3259C26.394 19.3018 29.5538 25.9017 31.5769 29.3341C31.5883 29.3679 31.611 29.3961 31.6338 29.4299C32.1282 30.2697 32.5544 30.9065 32.8556 31.2391C33.242 31.673 33.8331 32.1408 34.5207 32.5974C34.5321 32.603 34.5435 32.6143 34.5548 32.6199C36.0495 33.6119 37.9874 34.57 39.249 35.066C40.6527 35.6409 41.204 36.4074 41.1301 36.7456ZM19.205 23.2696C18.631 24.1432 17.9092 25.1239 16.8749 25.8171C16.0907 26.3413 15.2041 26.6175 14.3687 26.6175C14.005 26.6175 13.6526 26.5667 13.323 26.4596C11.9989 26.0426 11.1066 24.7125 11.3283 23.4894C11.5101 22.4862 12.3114 21.7704 12.9934 21.2632C13.1014 21.1842 13.2094 21.0997 13.323 21.0208C13.8913 20.6037 14.4312 20.2148 14.7551 19.685C14.8802 19.4878 15.1416 19.4201 15.3405 19.5441C15.5394 19.6681 15.6076 19.9274 15.4826 20.1247C15.0677 20.801 14.4369 21.2632 13.8231 21.7084C13.7151 21.7873 13.6072 21.8662 13.5049 21.9451C12.9536 22.3622 12.3001 22.9258 12.1694 23.6472C12.0216 24.4532 12.6695 25.3775 13.5788 25.6593C14.4369 25.9299 15.4883 25.727 16.3975 25.1183C17.3068 24.5096 17.9661 23.6078 18.4889 22.8074C18.6196 22.6102 18.881 22.5538 19.0799 22.6835C19.2788 22.8131 19.33 23.078 19.205 23.2696Z" fill="#434343" stroke="#434343" stroke-width="2"></path>
</g>
</g>
</g>
</g>
<path id="dino-arm" d="M15.1318 19.8285C14.5277 20.6688 14.1871 20.8409 12.611 22.113C10.7665 23.6017 11.9807 25.6841 13.2812 26.0083C14.8293 26.3943 17.101 26.0083 18.8342 22.927" stroke="#434343" stroke-width="0.8" stroke-linecap="round"></path>
</g>
<defs>
<clipPath id="clip0_24_322">
<rect width="42" height="39" fill="white"></rect>
</clipPath>
</defs>
</svg></svg></g></svg>